<svg xmlns="http://www.w3.org/2000/svg" xmlns:xlink="http://www.w3.org/1999/xlink" width="346.99" height="234.534" viewBox="0 0 346.99 234.534"><defs><style>.a{fill:#fff;}.b{fill:#faa635;}.c{fill:#00bce4;}.d{fill:#ea6393;}.e{fill:#00a9dc;}.f{filter:url(#a);}</style><filter id="a" x="0" y="0" width="346.99" height="234.534" filterUnits="userSpaceOnUse"><feOffset input="SourceAlpha"/><feGaussianBlur stdDeviation="10" result="b"/><feFlood flood-opacity="0.161"/><feComposite operator="in" in2="b"/><feComposite in="SourceGraphic"/></filter></defs><g transform="translate(-75.726 -94.21)"><g class="f" transform="matrix(1, 0, 0, 1, 75.73, 94.21)"><path class="a" d="M385.264,176.221a37.417,37.417,0,0,0-6.174-6.571,17.129,17.129,0,0,0-11.214-19.234A35.4,35.4,0,0,0,351.11,137.4a27.906,27.906,0,0,0-16.9-.783,32.671,32.671,0,0,0-9.33-6.71,29.114,29.114,0,0,0-24.785-.313,31.653,31.653,0,0,0-4.684,2.6,26.348,26.348,0,0,0-18.591-7.976c-10.134,0-19.287,6.2-24.323,15.815-9.436,1.536-16.313,5.627-20.494,12.195l-8.01-.7a14.58,14.58,0,0,0-6.184.775q-.134-.544-.309-1.07a14.228,14.228,0,0,0-25.337-10.471,14.317,14.317,0,0,0-1.619.934,15.389,15.389,0,0,0-3.141-.318h-9.5a14.742,14.742,0,0,0-8.073,2.346,14.643,14.643,0,0,0-8.045-2.346h-6.861a14.647,14.647,0,0,0-8.048,2.347,14.734,14.734,0,0,0-8.071-2.347h-9.5A13.681,13.681,0,0,0,115.6,157.986l3.062,15.956-12.937,3.374,9.2,35.28,4.583-1.2.312,1.2,6.088-1.588q.222.675.5,1.315a13.555,13.555,0,0,0-2.01,1.8,14.114,14.114,0,0,0-3.574,10.442l.519,8.921A14.127,14.127,0,0,0,126,243.323c.133.118.27.231.407.344l-1.137.155,4.932,36.126,4.69-.641.167,1.224,5.871-.8a13.741,13.741,0,0,0,12.835,8.231c.224,0,.452-.01.679-.02a14.262,14.262,0,0,0,9.73,6.383,14.2,14.2,0,0,0,15.286.211,40.432,40.432,0,0,0,10.024,3.333,42.281,42.281,0,0,0,8.346.877c10.262,0,16.848-4.355,20.786-8.485a28.883,28.883,0,0,0,4.069-5.448,14.3,14.3,0,0,0,8.6,3.425l17.759,1.07q1.724.1,3.361.1c10.244,0,18-3.044,23.094-8.967,4.238,3.8,10.677,7.137,20.228,7.137a45.2,45.2,0,0,0,5.089-.3c8.755-.992,14.766-4.017,18.894-7.622a16.6,16.6,0,0,0,6.957,2.589l15.752,2.165a18.294,18.294,0,0,0,2.5.173c8.047,0,14.413-5.517,15.561-13.87l1.2-8.732,10.605,1.664.192-1.221,4.677.734,5.31-33.855c4.426-5.164,8.3-12.341,9.791-22.974C392.79,203.042,394.421,188.727,385.264,176.221Zm-219.45,113.14c.163.07.33.134.5.2-.1,0-.2-.01-.3-.015C165.945,289.486,165.881,289.422,165.814,289.362Z" transform="translate(-75.73 -94.21)"/></g><g transform="translate(120.084 135.979)"><g transform="translate(192.795 34.447)"><path class="b" d="M525.012,282.125c-2.813-.387-4.268-2.306-3.3-5.182,6-18.663,19.8-14.761,24.72-28.7,1.423-4.1-.131-9.475-5.614-10.229-6.611-.909-10.349,2.3-12.124,7.934-.808,2.755-2.389,3.827-5.125,2.878l-15.548-5.72c-2.456-.91-3.508-2.631-3.019-5.143,2.235-10.01,10.169-28.121,39.141-24.138,31.5,4.329,29.205,29.376,28.484,33.575-3.209,23.346-19.792,23.073-26.459,34.049-1.313,2.255-2.733,3.206-5.264,2.859ZM523.6,289.24c-2.672-.367-4.413.826-4.8,3.639l-2.165,15.751a3.885,3.885,0,0,0,3.639,4.8l15.751,2.165c2.811.387,4.43-.967,4.8-3.639l2.165-15.751q.58-4.219-3.638-4.8Z" transform="translate(-504.886 -213.263)"/></g><g transform="translate(7.006 17.155)"><path class="c" d="M146.961,182.576c-.319-1.676.477-2.634,2.154-2.634h9.5a2.368,2.368,0,0,1,2.634,2.076l4.548,33.27c.159.8.8.8.955,0l5.347-33.27a2.412,2.412,0,0,1,2.634-2.076h6.861a2.414,2.414,0,0,1,2.634,2.076l5.343,33.27c.159.8.8.8.959,0l4.548-33.27a2.364,2.364,0,0,1,2.634-2.076h9.5c1.673,0,2.472.959,2.154,2.634l-9.813,51.143a2.414,2.414,0,0,1-2.635,2.075H185.659a2.463,2.463,0,0,1-2.635-2.075l-4.388-19.627c-.159-.8-.8-.8-.958,0l-4.389,19.627a2.459,2.459,0,0,1-2.631,2.075H159.409a2.411,2.411,0,0,1-2.634-2.075Z" transform="translate(-146.892 -179.942)"/></g><g transform="translate(69.719 24.95)"><path class="c" d="M283.718,195.762a2.183,2.183,0,0,1,2.175,2.594l-1.748,19.872a2.184,2.184,0,0,0,2.175,2.594l7.63.671a2.15,2.15,0,0,0,2.594-2.175l1.748-19.871a2.184,2.184,0,0,1,2.595-2.175l8.9.783a2.116,2.116,0,0,1,2.175,2.595l-4.475,50.868a2.148,2.148,0,0,1-2.595,2.175l-8.9-.783a2.183,2.183,0,0,1-2.175-2.595l1.1-12.559a2.117,2.117,0,0,0-2.175-2.594l-7.63-.671a2.148,2.148,0,0,0-2.594,2.175l-1.1,12.558a2.149,2.149,0,0,1-2.595,2.176l-8.9-.783a2.183,2.183,0,0,1-2.175-2.595l4.475-50.868a2.117,2.117,0,0,1,2.595-2.175Z" transform="translate(-267.732 -194.962)"/></g><g transform="translate(119.358 15.15)"><path class="c" d="M405.4,228.968c.147,1.748-.569,2.77-2.158,2.9l-8.905.749a2.149,2.149,0,0,1-2.586-2.185l-.582-6.917a2.116,2.116,0,0,0-2.587-2.185l-6.836.576a2.149,2.149,0,0,0-2.185,2.587l.582,6.917A2.117,2.117,0,0,1,377.961,234l-8.905.749c-1.511.127-2.466-.754-2.613-2.5l-2.837-33.713c-.843-10.015-.147-20.805,17.74-22.311s20.376,9.016,21.22,19.031Z" transform="translate(-363.382 -176.079)"/></g><g transform="translate(161.384 12.592)"><path class="c" d="M459.614,188.885a2.117,2.117,0,0,0-2.073-2.677L446.459,184.8a2.182,2.182,0,0,1-2.069-2.677l1.129-8.865a2.148,2.148,0,0,1,2.674-2.073l40.524,5.16a2.116,2.116,0,0,1,2.073,2.677l-1.129,8.865a2.148,2.148,0,0,1-2.677,2.073l-11.079-1.411a2.149,2.149,0,0,0-2.677,2.073l-4.716,37.041a2.149,2.149,0,0,1-2.677,2.072L456.97,228.6a2.183,2.183,0,0,1-2.072-2.677Z" transform="translate(-444.361 -171.151)"/></g><g transform="translate(130.475 30.929)"><path class="a" d="M392.381,206.484l3.245,4.9,5.876.1-3.657,4.6,1.717,5.621-5.506-2.056-4.815,3.37.254-5.872-4.693-3.538,5.663-1.573Z" transform="translate(-384.803 -206.484)"/></g><g transform="translate(236.729 25.24)"><circle class="d" cx="5.392" cy="5.392" r="5.392"/></g><g transform="translate(140.105)"><path class="d" d="M435.729,168.775a.886.886,0,0,1-.886-.886c0-10.6-6.664-19.23-14.856-19.23s-14.856,8.626-14.856,19.23a.886.886,0,0,1-1.773,0c0-11.581,7.46-21,16.628-21s16.629,9.421,16.629,21A.886.886,0,0,1,435.729,168.775Z" transform="translate(-403.358 -146.887)"/></g><g transform="translate(206.979 11.436)"><path class="d" d="M564,181.226a.887.887,0,0,1-1.221-.283c-5.606-9-15.824-12.8-22.777-8.467s-8.048,15.177-2.441,24.177a.887.887,0,0,1-1.505.938c-6.123-9.829-4.773-21.771,3.008-26.619s19.1-.8,25.22,9.033A.886.886,0,0,1,564,181.226Z" transform="translate(-532.218 -168.923)"/></g><g transform="translate(171.642 2.783)"><path class="d" d="M504.08,189.972a.887.887,0,0,1-.851-1.134c3.9-13.364-1.383-28.267-11.778-33.223a15.772,15.772,0,0,0-13.427-.178c-5.63,2.521-10.062,8.089-12.161,15.276a.886.886,0,1,1-1.7-.5c2.244-7.687,7.032-13.663,13.138-16.4a17.518,17.518,0,0,1,14.913.2c11.146,5.313,16.851,21.157,12.716,35.319A.886.886,0,0,1,504.08,189.972Z" transform="translate(-464.127 -152.249)"/></g><g transform="translate(4.893 49.249)"><rect class="d" width="2.004" height="12.923" transform="matrix(0.968, -0.252, 0.252, 0.968, 0, 0.506)"/></g><g transform="translate(0 49.249)"><rect class="d" width="2.004" height="12.923" transform="matrix(0.968, -0.252, 0.252, 0.968, 0, 0.506)"/></g><g transform="translate(240.42 101.144)"><rect class="d" width="12.923" height="2.004" transform="translate(0 12.767) rotate(-81.081)"/></g><g transform="translate(245.288 100.658)"><rect class="d" width="12.923" height="2.004" transform="translate(0 12.767) rotate(-81.081)"/></g><g transform="translate(75.875 15.082)"><circle class="d" cx="2.469" cy="2.469" r="2.469"/></g><g transform="translate(81.43 17.242)"><circle class="d" cx="2.469" cy="2.469" r="2.469"/></g><g transform="translate(80.813 11.07)"><circle class="d" cx="2.469" cy="2.469" r="2.469"/></g><g transform="translate(194.383 74.958)"><circle class="e" cx="2.978" cy="2.978" r="2.978"/></g><g transform="translate(198.974 80.489)"><circle class="e" cx="2.978" cy="2.978" r="2.978"/></g><g transform="translate(201.939 73.62)"><circle class="e" cx="2.978" cy="2.978" r="2.978"/></g><g transform="translate(12.488 82.992)"><path class="b" d="M174.189,324.489a2.116,2.116,0,0,0-2.529-2.251l-11.149.649a2.183,2.183,0,0,1-2.529-2.251l-.519-8.921a2.149,2.149,0,0,1,2.251-2.53l40.782-2.375a2.115,2.115,0,0,1,2.526,2.251l.52,8.921a2.147,2.147,0,0,1-2.248,2.529l-11.152.65a2.148,2.148,0,0,0-2.251,2.529l2.171,37.277a2.149,2.149,0,0,1-2.251,2.529l-8.921.52a2.184,2.184,0,0,1-2.529-2.251Z" transform="translate(-157.455 -306.803)"/></g><g transform="translate(109.66 84.758)"><path class="d" d="M368.067,311.277c14.974.9,19.547,7.254,18.76,20.315l-1.051,17.442c-.788,13.064-6.1,18.9-21.07,18l-17.759-1.071a2.183,2.183,0,0,1-2.246-2.534l3.068-50.891a2.209,2.209,0,0,1,2.539-2.327Zm-2.295,42.066c3.823.23,5.774-.29,6.062-5.069l1.057-17.523c.3-4.939-1.587-5.53-5.41-5.761l-4.3-.259a2.149,2.149,0,0,0-2.534,2.246l-1.421,23.573a2.183,2.183,0,0,0,2.246,2.534Z" transform="translate(-344.695 -310.207)"/></g><g transform="translate(154.882 81.04)"><path class="d" d="M474.077,340.093c.593,5.235,1.073,19.392-17.716,21.521s-21.492-11.776-22.085-17.011l-2.246-19.819c-.593-5.232-1.072-19.392,17.72-21.521s21.489,11.78,22.082,17.012Zm-15.406-14.071c-.692-6.107-1.511-9.787-7.376-9.122s-5.843,4.435-5.151,10.542l1.293,11.416c.692,6.1,1.511,9.784,7.379,9.119s5.84-4.435,5.148-10.538Z" transform="translate(-431.832 -303.043)"/></g><g transform="translate(55.343 92.143)"><path class="b" d="M279.876,367.588c-1.04,5.165-4.922,18.788-23.459,15.056s-16.849-17.8-15.809-22.961l3.936-19.553c1.039-5.162,4.922-18.788,23.462-15.055s16.845,17.8,15.806,22.96Zm-10.353-18.115c1.213-6.025,1.561-9.778-4.225-10.944s-6.921,2.431-8.134,8.456L254.9,358.249c-1.212,6.022-1.561,9.775,4.229,10.941s6.918-2.431,8.13-8.453Z" transform="translate(-240.031 -324.436)"/></g><g transform="translate(23.302 118.223)"><rect class="e" width="2.003" height="12.923" transform="translate(0 0.271) rotate(-7.771)"/></g><g transform="translate(18.444 117.64)"><rect class="e" width="2.003" height="12.923" transform="translate(0 0.271) rotate(-7.774)"/></g><g transform="translate(202.83 93.785)"><rect class="e" width="2.003" height="12.923" transform="translate(0 0.271) rotate(-7.774)"/></g><g transform="translate(197.972 93.202)"><rect class="e" width="2.003" height="12.923" transform="translate(0 0.271) rotate(-7.771)"/></g><g transform="translate(43.878 141.818)"><circle class="e" cx="2.469" cy="2.469" r="2.469"/></g><g transform="translate(49.434 143.978)"><circle class="e" cx="2.469" cy="2.469" r="2.469" transform="translate(0 0)"/></g><g transform="translate(48.816 137.806)"><circle class="e" cx="2.469" cy="2.469" r="2.469"/></g></g></g></svg>